HIERARCHY
ROOT Hips
{
	OFFSET -0.179506 -22.333345 2.821913
	CHANNELS 6 Xposition Yposition Zposition Zrotation Yrotation Xrotation 
	JOINT LeftUpLeg
	{
		OFFSET 6.951974 -9.140623 -0.681533
		CHANNELS 3 Zrotation Yrotation Xrotation
		JOINT LeftLeg
		{
			OFFSET 3.427654 -37.519855 -0.449580
			CHANNELS 3 Zrotation Yrotation Xrotation
			JOINT LeftFoot
			{
				OFFSET -1.359570 -39.796059 -4.369333
				CHANNELS 3 Zrotation Yrotation Xrotation
				JOINT LeftToe
				{
					OFFSET 2.635814 -5.579078 11.928840
					CHANNELS 3 Zrotation Yrotation Xrotation
					End Site
					{
						OFFSET 0.000000 0.000000 0.000000
					}
				}
			}
		}
	}
	JOINT RightUpLeg
	{
		OFFSET -6.767048 -9.052170 -0.431982
		CHANNELS 3 Zrotation Yrotation Xrotation
		JOINT RightLeg
		{
			OFFSET -3.829005 -38.256897 -0.885003
			CHANNELS 3 Zrotation Yrotation Xrotation
			JOINT RightFoot
			{
				OFFSET 1.577377 -39.841461 -4.231180
				CHANNELS 3 Zrotation Yrotation Xrotation
				JOINT RightToe
				{
					OFFSET -2.537174 -4.814398 12.334795
					CHANNELS 3 Zrotation Yrotation Xrotation
					End Site
					{
						OFFSET 0.000000 0.000000 0.000000
					}
				}
			}
		}
	}
	JOINT Spine
	{
		OFFSET -0.253288 10.896323 -2.669631
		CHANNELS 3 Zrotation Yrotation Xrotation
		JOINT Spine1
		{
			OFFSET 0.548704 13.518043 0.109247
			CHANNELS 3 Zrotation Yrotation Xrotation
			JOINT Spine2
			{
				OFFSET 0.145701 5.292222 2.542457
				CHANNELS 3 Zrotation Yrotation Xrotation
				JOINT Neck
				{
					OFFSET -0.277840 21.387037 -4.285703
					CHANNELS 3 Zrotation Yrotation Xrotation
					JOINT Head
					{
						OFFSET 0.515184 6.496960 5.134897
						CHANNELS 3 Zrotation Yrotation Xrotation
						End Site
						{
							OFFSET 0.000000 0.000000 0.000000
						}
					}
				}
				JOINT LeftShoulder
				{
					OFFSET 7.884473 12.174932 -3.408961
					CHANNELS 3 Zrotation Yrotation Xrotation
					JOINT LeftArm
					{
						OFFSET 9.097692 3.046888 -0.886815
						CHANNELS 3 Zrotation Yrotation Xrotation
						JOINT LeftForeArm
						{
							OFFSET 25.961220 -1.277207 -2.745643
							CHANNELS 3 Zrotation Yrotation Xrotation
							JOINT LeftHand
							{
								OFFSET 24.923361 0.898606 -0.117091
								CHANNELS 3 Zrotation Yrotation Xrotation
								End Site
								{
									OFFSET 0.000000 0.000000 0.000000
								}
							}
						}
					}
				}
				JOINT RightShoulder
				{
					OFFSET -8.175920 11.883285 -3.861528
					CHANNELS 3 Zrotation Yrotation Xrotation
					JOINT RightArm
					{
						OFFSET -9.601238 3.255117 -0.914307
						CHANNELS 3 Zrotation Yrotation Xrotation
						JOINT RightForeArm
						{
							OFFSET -25.374195 -1.332924 -2.140099
							CHANNELS 3 Zrotation Yrotation Xrotation
							JOINT RightHand
							{
								OFFSET -25.529810 0.777228 -0.555919
								CHANNELS 3 Zrotation Yrotation Xrotation
								End Site
								{
									OFFSET 0.000000 0.000000 0.000000
								}
							}
						}
					}
				}
			}
		}
	}
}
MOTION
Frames: 16
Frame Time: 0.033333
-20.470827 -9.220083 83.324615 -130.745062 3.053348 91.402455 24.262518 9.529779 -37.194398 -5.872058 0.694395 25.572168 -6.117155 2.199824 2.863960 nan nan nan -17.694580 -6.718881 -19.151552 -0.803999 -5.790430 45.487552 2.804614 -3.285723 -32.378081 nan nan nan -4.606945 6.877901 19.300638 7.184783 -5.532280 10.709170 5.131095 0.589991 0.028763 6.029983 -5.463510 21.161602 13.772586 -23.894226 -7.624353 -0.485741 -7.896682 -1.649372 -74.628937 -53.090347 34.044846 138.464209 -68.175066 -106.482930 -6.407646 -18.937038 0.814921 15.172838 3.543979 1.581629 50.704697 16.461012 -1.975943 -65.070554 38.627065 -40.930977 6.200882 7.014907 -8.860024 
-21.857771 -9.094275 83.834732 -131.148990 3.160373 91.402795 24.320740 9.578848 -35.898246 -5.782326 0.466059 24.471381 -6.088090 2.053800 2.687304 nan nan nan -18.153811 -7.166990 -17.601637 -0.405621 -5.660472 43.751673 3.144555 -2.809434 -31.218435 nan nan nan -4.673606 7.104655 17.644245 7.217362 -5.316590 11.020403 5.017665 0.773575 -0.023924 5.906433 -5.795919 21.162829 13.187841 -23.929621 -6.975450 -0.848027 -7.627379 -1.765733 -74.466762 -52.097225 34.090572 139.154923 -68.295688 -107.594317 -6.296501 -18.877737 0.719675 15.110158 3.312328 1.324484 50.289244 15.982238 -1.695673 -62.196346 37.440224 -38.668226 6.572504 6.883233 -8.797688 
-23.267565 -8.945590 84.326103 -131.652872 3.276158 91.265697 24.488631 9.562322 -34.445979 -5.856460 0.285757 23.940354 -6.145542 1.735613 1.556479 nan nan nan -18.604824 -7.602914 -16.078519 -0.188731 -5.549652 42.292005 3.503497 -2.228423 -29.770601 nan nan nan -4.719757 7.246036 16.308773 7.243658 -5.046543 11.258663 4.824231 0.976230 -0.306898 5.810500 -5.981197 21.326141 12.588722 -24.000221 -6.450091 -1.250271 -6.993189 -1.922309 -74.529792 -51.124005 34.404456 139.776417 -68.423317 -108.625451 -6.284027 -19.106864 0.733287 15.181822 2.970214 1.165842 49.855252 15.644126 -1.330849 -59.593888 36.179911 -36.579712 7.078875 6.997574 -8.826360 
-24.686304 -8.797818 84.804497 -132.171723 3.433047 90.997759 24.787579 9.365149 -32.878053 -6.332540 -0.334175 23.798006 -6.049243 1.352845 -0.279583 nan nan nan -19.006140 -8.039397 -14.623474 -0.079040 -5.469833 41.123833 3.872678 -1.880983 -28.132147 nan nan nan -4.658074 7.429549 15.243514 7.351026 -4.727678 11.333727 4.586399 1.031461 -0.601255 5.548596 -6.329293 21.457624 11.943564 -23.814815 -5.852024 -1.738200 -6.296179 -1.851998 -74.425910 -50.323350 34.546447 140.590297 -68.379906 -109.869853 -6.419065 -19.270370 -0.075031 15.277446 2.472159 0.657307 49.530231 15.375757 -0.850676 -57.078382 35.035382 -34.386483 7.441385 6.898548 -9.126167 
-26.100172 -8.671556 85.265350 -132.727171 3.643275 90.607303 25.148678 9.038737 -31.210714 -6.840686 -0.917786 23.895370 -5.745665 0.893382 -2.509056 nan nan nan -19.305253 -8.265265 -13.254134 -0.213065 -5.525095 40.238484 4.351113 -1.835265 -26.246921 nan nan nan -4.582489 7.593378 14.331620 7.550899 -4.389139 11.472836 4.319096 1.096990 -0.792750 5.313282 -6.523948 21.314646 11.655439 -24.094339 -5.211016 -2.143703 -5.551129 -1.882222 -74.478071 -49.629781 34.794694 141.257872 -68.128110 -111.144334 -6.827568 -19.250721 -0.519517 15.483122 2.078020 -0.008722 48.929444 15.021134 -0.461594 -54.792965 33.985222 -32.922105 8.083884 6.888700 -9.169109 
-27.538837 -8.546973 85.693314 -133.337396 3.857545 89.991858 25.305739 8.869610 -29.468692 -7.169702 -1.041300 24.290393 -5.407790 0.591339 -4.764907 nan nan nan -19.606915 -8.390014 -11.863698 -0.484104 -5.559441 39.635898 4.602950 -1.883838 -24.168964 nan nan nan -4.452570 7.708973 13.790229 7.719985 -4.003030 11.638565 4.147472 1.287264 -1.133216 5.294621 -6.474628 21.254210 11.227495 -24.569951 -4.944806 -2.703868 -4.903851 -1.949618 -74.420789 -49.018186 34.909519 141.831284 -68.054146 -112.151633 -7.041953 -19.360448 0.183374 15.509564 1.932660 -0.092599 48.188310 14.517258 -0.569638 -52.916647 33.024307 -32.135919 8.430614 6.920392 -8.759046 
-28.965996 -8.452589 86.069466 -133.932958 3.980111 89.306234 25.254403 8.797504 -27.831622 -7.445213 -0.779345 24.693211 -4.990668 0.483156 -6.597787 nan nan nan -20.040402 -8.567506 -10.638858 -0.697695 -5.478036 39.275386 4.587865 -1.950988 -22.242111 nan nan nan -4.314066 7.804983 13.569209 7.801804 -3.550182 11.647221 3.987823 1.487844 -1.521006 5.358948 -6.588367 20.826820 10.375146 -24.949697 -4.331569 -3.313200 -4.325368 -1.978363 -74.237977 -48.604107 35.020972 142.137539 -67.986166 -112.654548 -7.224229 -19.511144 0.532496 15.548069 1.704546 -0.163776 47.581380 14.092369 -0.486087 -51.469376 31.938787 -31.476474 8.414406 6.536519 -8.629965 
-30.296040 -8.415013 86.384239 -134.370588 4.080793 88.911318 25.132774 8.725523 -26.788892 -7.701735 -0.514520 25.088802 -4.432302 0.549229 -7.952272 nan nan nan -20.433589 -8.758945 -9.982247 -0.826554 -5.447719 39.220826 4.443561 -2.213738 -20.483563 nan nan nan -4.213913 7.792444 13.416289 7.855785 -3.181064 11.163495 3.867612 1.636254 -1.765094 5.436577 -7.058385 20.069006 9.130844 -25.183846 -3.140024 -3.676119 -3.788773 -1.967688 -73.951422 -48.181333 34.791603 142.364785 -67.819121 -112.745074 -7.103800 -19.712863 0.331478 15.657803 1.294097 -0.443426 47.004391 13.884862 -0.219052 -50.070491 30.886158 -30.541075 8.481618 6.150629 -8.583452 
-31.500542 -8.436355 86.650627 -134.751255 4.166666 88.712675 25.016890 8.643702 -26.224677 -8.134902 -0.290072 25.681518 -3.922232 1.009913 -8.864610 nan nan nan -20.768032 -8.760018 -9.843726 -0.951016 -5.627912 39.504014 4.159151 -2.796248 -18.996541 nan nan nan -4.063662 7.427793 12.651271 7.675161 -3.279153 11.390519 3.502533 2.242846 -1.846492 5.771856 -7.246417 19.221644 7.928191 -25.286685 -1.887777 -3.639224 -3.555328 -2.193849 -73.064706 -47.603835 33.783897 143.051506 -67.469348 -113.369394 -6.140835 -19.223047 -0.032701 16.043977 1.521682 -0.572429 46.182739 13.652194 -0.331032 -48.854571 29.869889 -30.196431 8.760906 6.107126 -8.030105 
-32.641014 -8.476459 86.904594 -135.012147 4.241123 88.567504 24.791320 8.677065 -25.888325 -8.609780 -0.097622 26.359377 -3.680849 1.553425 -9.442339 nan nan nan -21.031222 -8.763626 -9.841915 -1.104355 -5.898857 39.835602 3.761352 -3.561339 -18.059646 nan nan nan -3.969211 7.357470 12.036224 7.625085 -3.120300 11.549442 3.379579 2.460737 -2.098361 5.978305 -7.596594 18.417749 6.851205 -25.243560 -0.774516 -3.953271 -3.427374 -2.390972 -72.334186 -47.213068 33.284568 143.469154 -67.237382 -114.596898 -5.442005 -18.561798 -0.656626 16.454050 1.639385 -0.569870 45.111643 13.268871 -0.495519 -47.838247 29.090551 -30.150188 8.914106 5.934528 -7.399656 
-33.720028 -8.548041 87.148643 -135.026922 4.252426 88.480922 24.386093 8.633125 -25.697451 -8.817345 0.112454 26.799811 -3.334831 1.868386 -9.975826 nan nan nan -21.307400 -8.950919 -9.856897 -1.240839 -6.236247 40.170050 3.450532 -4.170479 -17.767739 nan nan nan -3.980928 7.366258 11.587453 7.600788 -2.917711 11.437176 3.417446 2.589189 -2.240352 6.147282 -8.123162 17.619459 5.962577 -25.375260 0.034529 -4.520324 -3.420930 -2.528002 -71.832624 -47.238667 33.186917 142.897471 -67.208796 -115.577843 -5.535258 -18.556763 -0.488153 16.672351 1.676352 -0.593027 44.283258 12.729409 -0.687456 -47.018627 28.339788 -30.184294 8.867110 5.569375 -6.878411 
-34.762592 -8.625103 87.410858 -135.017635 4.148072 88.422516 23.834296 8.530120 -25.373610 -8.910766 0.265910 27.013819 -2.994104 2.089055 -10.553910 nan nan nan -21.643993 -9.150131 -9.849390 -1.235276 -6.444912 40.308268 3.382183 -4.442769 -17.799425 nan nan nan -4.115185 7.370097 11.136311 7.512105 -2.709178 11.149703 3.301159 2.740858 -1.988688 6.141810 -8.730254 16.782044 5.766474 -25.911901 0.926608 -4.951832 -3.164077 -2.715523 -71.650750 -47.573868 33.548705 142.180458 -67.168673 -116.251837 -5.646287 -18.495357 0.110994 17.106822 1.567972 -1.026342 43.642648 12.323055 -0.695275 -46.264990 27.396768 -30.514624 8.970298 5.225431 -6.161796 
-35.787067 -8.641072 87.725311 -135.082911 4.045298 88.206822 23.226578 8.552539 -24.622005 -9.049033 -0.061678 26.987180 -2.721480 2.347144 -11.139257 nan nan nan -21.849270 -9.392590 -9.619808 -1.193986 -6.342558 40.114137 3.348025 -4.547986 -17.928786 nan nan nan -4.381541 7.551456 10.847237 7.555270 -2.519293 11.097299 3.417413 2.701201 -2.141152 5.918396 -9.188056 16.264036 5.444786 -25.842121 1.680399 -5.221093 -3.491773 -2.746701 -70.563787 -47.322613 32.772200 142.506520 -66.804581 -116.638635 -4.974325 -18.266441 0.052040 17.490560 1.633266 -1.331301 42.914644 11.961491 -0.764338 -45.456213 26.536542 -30.717912 8.683197 5.213247 -5.907194 
-36.782959 -8.596395 88.049301 -135.209634 4.033446 87.857017 22.758762 8.624753 -23.458678 -9.001574 -0.505775 26.521201 -2.321818 2.302642 -11.806078 nan nan nan -21.907545 -9.785139 -9.251989 -1.219167 -6.206509 39.741094 3.423017 -4.225869 -18.127573 nan nan nan -4.511453 7.733528 10.734128 7.626840 -2.205849 11.344545 3.432270 2.591028 -2.543002 5.913899 -9.622572 15.624303 5.114921 -26.192612 2.432156 -5.896605 -3.189096 -2.981411 -69.933632 -47.469283 32.652260 142.330524 -66.568146 -116.588955 -5.798727 -18.349837 1.415529 18.043526 1.361135 -1.702140 42.127403 11.814369 -0.328411 -44.994553 25.595586 -30.480311 9.450219 5.236335 -5.568637 
-37.751087 -8.536627 88.374237 -135.367548 4.037029 87.571183 22.294496 8.644325 -22.241966 -8.778015 -0.835128 25.814517 -1.982650 2.270787 -12.475364 nan nan nan -21.934681 -10.148478 -8.887656 -1.101098 -6.207320 39.108761 3.650206 -3.706764 -18.238918 nan nan nan -4.540143 7.892547 10.471970 7.597309 -1.956411 11.857195 3.297116 2.566993 -3.242029 5.965510 -9.851406 15.258567 4.943346 -26.614198 3.026964 -6.510039 -2.929064 -3.031721 -69.220768 -47.776708 32.564815 141.891856 -66.353191 -116.476850 -6.744907 -18.551268 3.012227 18.472010 1.259011 -1.704108 41.633534 11.577466 -0.252553 -44.506020 24.711227 -30.843618 10.156108 5.639083 -5.176965 
-38.693668 -8.487670 88.701111 -135.592931 4.014012 87.424039 21.809788 8.685963 -21.093809 -8.576028 -0.907894 25.075584 -1.923338 2.403611 -12.974593 nan nan nan -21.896628 -10.394433 -8.645767 -0.803014 -6.189731 38.198891 3.870106 -3.208507 -18.169343 nan nan nan -4.722236 8.025323 9.957697 7.562250 -1.742459 12.511215 3.094970 2.680271 -3.973210 6.155418 -10.053957 14.805550 4.799386 -26.902583 3.946980 -6.878239 -2.790791 -2.922749 -68.601926 -48.200919 32.632780 141.185075 -66.042449 -116.324917 -7.322157 -18.513469 3.963624 18.763464 1.224034 -1.506786 41.312484 11.340859 -0.430884 -43.893898 23.990395 -31.861251 10.447029 5.952450 -5.278181 
